<svg xmlns="http://www.w3.org/2000/svg" viewBox="0 0 100 100">
  <!-- Prato -->
  <ellipse cx="50" cy="85" rx="40" ry="8" fill="#3D2E1C"/>
  <!-- Bolo base -->
  <path d="M20 50 Q20 80 50 80 Q80 80 80 50 L80 45 Q80 40 50 40 Q20 40 20 45 Z" fill="#B88917"/>
  <!-- Cobertura escorrendo -->
  <path d="M20 50 Q25 55 30 50 Q35 58 40 50 Q45 56 50 50 Q55 58 60 50 Q65 55 70 50 Q75 57 80 50 L80 45 Q80 40 50 40 Q20 40 20 45 Z" fill="#5C4419"/>
  <!-- Brilho -->
  <ellipse cx="35" cy="55" rx="8" ry="4" fill="#D4A84B" opacity="0.3"/>
</svg>
